#!OML:ASF H:\charlestonDancing\Project 1\Capture day 1\Session 1\femaleDancer.ASF
:FULLY-SPECIFIED
:DEGREES
461
root -2.16556 17.4788 4.50498 880.666 -78.6162 -876.7
lowerback 16.1592 -4.45539 2.17164
upperback 2.36329 -5.667 -0.503043
thorax -6.76137 -2.86902 -0.51579
lowerneck 1.32458 0.548435 3.72296
upperneck -7.46642 0.248651 -7.2221
head -2.62908 0.173392 -3.03654
rclavicle 6.4605e-014 -1.11319e-014
rhumerus -51.0259 -12.2266 -56.6825
rradius 92.399
rwrist -49.2191
rhand -13.9171 -34.3407
rfingers 7.12502
rthumb 12.209 -63.9644
lclavicle 6.4605e-014 -1.11319e-014
lhumerus 17.1356 -26.8587 43.0359
lradius 72.8196
lwrist -4.02039
lhand -15.1041 4.99726
lfingers 7.12502
lthumb 11.0643 34.6856
rfemur -22.5604 9.61592 28.7136
rtibia 38.8588
rfoot -19.7471 5.68919
rtoes -7.57332
lfemur -26.7538 6.42029 -16.6551
ltibia 48.893
lfoot -15.3889 -12.2843
ltoes -16.8531
462
root -2.19235 17.543 4.51087 885.345 -78.248 -881.11
lowerback 15.7736 -4.33929 1.96794
upperback 2.26275 -5.55618 -0.557513
thorax -6.64121 -2.81033 -0.509684
lowerneck 0.902047 1.29525 4.55216
upperneck -8.30848 1.13453 -8.13854
head -2.78155 0.601398 -3.54519
rclavicle -1.13307e-014 1.66979e-014
rhumerus -50.9914 -12.1944 -56.6774
rradius 92.6968
rwrist -48.9414
rhand -13.9534 -34.2391
rfingers 7.12502
rthumb 12.174 -63.8648
lclavicle -1.13307e-014 1.66979e-014
lhumerus 16.2049 -28.5333 42.7688
lradius 73.2982
lwrist -4.52995
lhand -14.2781 4.89454
lfingers 7.12502
lthumb 11.8609 34.5386
rfemur -22.3947 9.76447 27.8152
rtibia 37.9617
rfoot -19.4164 6.38895
rtoes -7.21197
lfemur -26.2921 6.0542 -17.516
ltibia 48.055
lfoot -14.4911 -10.7759
ltoes -15.7319
463
root -2.21556 17.6001 4.51932 889.091 -77.8207 -884.594
lowerback 15.375 -4.15908 1.97268
upperback 2.1793 -5.32167 -0.55666
thorax -6.50508 -2.69601 -0.58803
lowerneck 0.660834 1.90016 5.31267
upperneck -9.57551 1.75668 -9.36871
head -2.78849 0.934472 -3.75092
rclavicle 2.38542e-014 -9.54166e-015
rhumerus -50.8161 -12.5033 -56.5873
rradius 92.8149
rwrist -48.3331
rhand -13.9029 -34.2758
rfingers 7.12502
rthumb 12.2227 -63.8986
lclavicle 2.38542e-014 -9.54166e-015
lhumerus 15.3996 -30.5189 42.4899
lradius 73.7969
lwrist -4.16173
lhand -13.8064 5.33508
lfingers 7.12502
lthumb 12.3158 34.9524
rfemur -22.3039 9.84078 27.0669
rtibia 37.2244
rfoot -19.1789 7.07734
rtoes -6.77101
lfemur -25.8945 5.73617 -18.2683
ltibia 47.3554
lfoot -13.8891 -9.44309
ltoes -15.0912
464
root -2.2325 17.6419 4.53258 891.738 -77.1998 -887.054
lowerback 15.1369 -3.95094 2.18522
upperback 2.16756 -5.01621 -0.54374
thorax -6.39387 -2.55254 -0.773787
lowerneck 0.404943 2.42842 6.21232
upperneck -10.7254 2.28962 -10.3459
head -3.01418 1.18785 -4.22657
rclavicle 9.52179e-014 -4.77083e-015
rhumerus -50.6448 -12.9446 -56.4671
rradius 93.121
rwrist -47.7856
rhand -13.9024 -34.3741
rfingers 7.12502
rthumb 12.2232 -63.9969
lclavicle 9.52179e-014 -4.77083e-015
lhumerus 14.5873 -32.4256 42.2199
lradius 74.2628
lwrist -3.24931
lhand -13.3246 5.71272
lfingers 7.12502
lthumb 12.7802 35.3015
rfemur -22.2121 9.97444 26.5477
rtibia 36.6394
rfoot -19.0163 7.83128
rtoes -6.22895
lfemur -25.5223 5.5534 -18.8003
ltibia 46.7662
lfoot -13.785 -8.32345
ltoes -15.3359
465
root -2.23862 17.6622 4.54408 893.326 -76.457 -888.586
lowerback 15.27 -3.80419 2.34801
upperback 2.17759 -4.79059 -0.470652
thorax -6.45453 -2.44661 -0.826636
lowerneck 0.378821 3.07024 6.87387
upperneck -12.1069 2.99184 -10.8983
head -3.33343 1.52261 -4.54741
rclavicle 4.51241e-014 -7.15625e-015
rhumerus -50.276 -13.3572 -56.4723
rradius 93.4543
rwrist -47.2905
rhand -13.8035 -34.4139
rfingers 7.12502
rthumb 12.3186 -64.0311
lclavicle 4.51241e-014 -7.15625e-015
lhumerus 13.2629 -34.1221 42.164
lradius 74.8443
lwrist -2.02614
lhand -12.9431 6.38771
lfingers 7.12502
lthumb 13.1481 35.9532
rfemur -22.0775 10.3589 26.2635
rtibia 36.2053
rfoot -18.9149 8.36421
rtoes -5.82135
lfemur -25.1497 5.48665 -19.07
ltibia 46.2342
lfoot -13.9048 -7.43197
ltoes -15.9762
466
root -2.24118 17.672 4.55062 894.608 -75.857 -889.967
lowerback 15.557 -3.72059 2.35817
upperback 2.15768 -4.66784 -0.387729
thorax -6.62208 -2.38712 -0.751589
lowerneck 1.08104 3.78096 7.06794
upperneck -13.8951 3.84078 -10.9158
head -3.90149 1.94671 -4.65872
rclavicle -5.20816e-014 1.19271e-014
rhumerus -49.9276 -13.7111 -56.4628
rradius 93.7383
rwrist -46.6994
rhand -13.2872 -34.3186
rfingers 7.12502
rthumb 12.8163 -63.9052
lclavicle -5.20816e-014 1.19271e-014
lhumerus 11.4167 -35.8937 42.5277
lradius 75.4819
lwrist -0.488082
lhand -12.6761 7.4265
lfingers 7.12502
lthumb 13.4054 36.9752
rfemur -21.8671 10.7202 26.0072
rtibia 35.9438
rfoot -18.9314 8.6541
rtoes -5.5581
lfemur -24.6988 5.26035 -19.2756
ltibia 45.7373
lfoot -14.1239 -6.87355
ltoes -15.913
467
root -2.24952 17.6825 4.55691 896.608 -75.4516 -892.195
lowerback 15.7462 -3.7013 2.20327
upperback 2.14037 -4.66988 -0.45239
thorax -6.73784 -2.38566 -0.720103
lowerneck 1.2024 4.26901 8.26956
upperneck -14.6857 4.40394 -11.7585
head -4.04544 2.20014 -5.1607
rclavicle 3.20043e-014 -1.03368e-014
rhumerus -49.6433 -13.9821 -56.5502
rradius 94.0132
rwrist -45.972
rhand -12.7256 -34.2716
rfingers 7.12502
rthumb 13.3577 -63.8234
lclavicle 3.20043e-014 -1.03368e-014
lhumerus 9.41738 -37.7678 43.1537
lradius 75.8778
lwrist 1.34418
lhand -12.5512 8.4647
lfingers 7.12502
lthumb 13.5257 38.0054
rfemur -21.6338 10.7784 25.4787
rtibia 35.8602
rfoot -18.909 9.06677
rtoes -4.84341
lfemur -24.1681 4.76282 -19.7207
ltibia 45.3162
lfoot -14.4614 -6.65464
ltoes -14.6607
468
root -2.25412 17.6821 4.56738 897.958 -74.9172 -893.692
lowerback 15.9102 -3.67404 2.22969
upperback 2.07839 -4.63036 -0.529337
thorax -6.90161 -2.36824 -0.812113
lowerneck 1.72837 4.70738 9.02834
upperneck -15.6179 5.00178 -11.8602
head -4.32676 2.46681 -5.37565
rclavicle -1.76918e-014 -9.14409e-015
rhumerus -49.4129 -14.1752 -56.696
rradius 94.3299
rwrist -45.3195
rhand -12.4173 -34.2408
rfingers 7.12502
rthumb 13.6548 -63.7729
lclavicle -1.76918e-014 -9.14409e-015
lhumerus 7.3141 -39.6502 44.1285
lradius 75.863
lwrist 3.1967
lhand -12.7052 9.39801
lfingers 7.12502
lthumb 13.3774 38.9485
rfemur -21.6007 10.8733 25.1052
rtibia 35.9365
rfoot -18.814 9.58203
rtoes -4.14937
lfemur -23.8298 4.27945 -19.9708
ltibia 45.054
lfoot -14.9223 -6.53186
ltoes -13.7991
469
root -2.25554 17.6656 4.57985 897.639 -74.2237 -893.344
lowerback 16.0168 -3.59296 2.60122
upperback 1.9638 -4.44597 -0.437758
thorax -7.0968 -2.28736 -0.953103
lowerneck 2.39104 5.01555 9.36973
upperneck -16.5652 5.48309 -11.4854
head -4.67966 2.66953 -5.37746
rclavicle -3.52843e-014 1.07344e-014
rhumerus -49.4819 -14.0783 -56.4923
rradius 94.8888
rwrist -45.0914
rhand -12.3721 -34.2406
rfingers 7.12502
rthumb 13.6984 -63.7698
lclavicle -3.52843e-014 1.07344e-014
lhumerus 4.89032 -41.4555 45.8174
lradius 75.4667
lwrist 4.84627
lhand -13.1679 10.3847
lfingers 7.12502
lthumb 12.9314 39.964
rfemur -21.7671 11.165 25.2432
rtibia 36.143
rfoot -18.819 9.98578
rtoes -4.12603
lfemur -23.7612 3.89815 -19.6819
ltibia 45.0318
lfoot -15.5111 -6.36411
ltoes -14.7834
470
root -2.26336 17.6462 4.59196 897.365 -73.6133 -892.995
lowerback 15.9767 -3.53405 2.86356
upperback 1.87468 -4.3104 -0.304413
thorax -7.17341 -2.22702 -0.988038
lowerneck 2.97947 5.23783 9.8022
upperneck -17.3983 5.84725 -11.2578
head -4.99108 2.80831 -5.43623
rclavicle 2.60408e-014 1.98785e-014
rhumerus -49.2383 -14.0159 -56.3988
rradius 95.2011
rwrist -44.7288
rhand -12.3398 -34.2799
rfingers 7.12502
rthumb 13.7295 -63.8069
lclavicle 2.60408e-014 1.98785e-014
lhumerus 2.01428 -43.0166 48.2446
lradius 74.7368
lwrist 6.66397
lhand -14.2137 11.3795
lfingers 7.12502
lthumb 11.923 41.02
rfemur -21.9891 11.3869 25.3708
rtibia 36.4303
rfoot -18.9433 10.3805
rtoes -4.19232
lfemur -23.8159 3.39921 -19.3737
ltibia 45.2649
lfoot -16.048 -6.50912
ltoes -15.7395
471
root -2.26884 17.6277 4.60391 897.363 -73.1746 -892.94
lowerback 15.9123 -3.52196 2.96509
upperback 1.84937 -4.26947 -0.184874
thorax -7.16122 -2.20848 -0.929986
lowerneck 3.27708 5.51435 10.1682
upperneck -18.0128 6.29044 -10.9452
head -5.18463 2.97327 -5.44237
rclavicle 1.83876e-014 2.14687e-014
rhumerus -48.6014 -14.0904 -56.4887
rradius 95.2261
rwrist -44.2216
rhand -12.0842 -34.3595
rfingers 7.12502
rthumb 13.9759 -63.8697
lclavicle 1.83876e-014 2.14687e-014
lhumerus -1.22396 -44.1201 51.3546
lradius 73.7391
lwrist 8.8197
lhand -15.3851 12.5412
lfingers 7.12502
lthumb 10.7933 42.2439
rfemur -22.2035 11.6067 25.3902
rtibia 36.7412
rfoot -19.1091 10.5919
rtoes -4.28753
lfemur -23.9208 2.66203 -19.1285
ltibia 45.6959
lfoot -16.2693 -7.03938
ltoes -17.1138
472
root -2.26802 17.609 4.617 897.065 -72.8607 -892.709
lowerback 16.2085 -3.5576 3.08443
upperback 1.73661 -4.27339 -0.0697916
thorax -7.44569 -2.21313 -0.851657
lowerneck 3.4507 5.8483 10.1097
upperneck -18.3584 6.86928 -10.1241
head -5.30277 3.19717 -5.20626
rclavicle 5.06901e-015 3.10104e-014
rhumerus -48.4421 -13.8415 -56.3318
rradius 95.489
rwrist -44.1321
rhand -11.8309 -34.5566
rfingers 7.12502
rthumb 14.22 -64.0498
lclavicle 5.06901e-015 3.10104e-014
lhumerus -5.07106 -44.7179 55.3265
lradius 72.3805
lwrist 10.4162
lhand -16.1782 13.7737
lfingers 7.12502
lthumb 10.0283 43.5148
rfemur -22.2749 11.8709 25.4807
rtibia 37.0291
rfoot -19.2565 10.5646
rtoes -4.55389
lfemur -23.9243 1.67583 -18.7782
ltibia 46.254
lfoot -16.1866 -7.63659
ltoes -19.365
473
root -2.26844 17.5958 4.62921 897.025 -72.5479 -892.815
lowerback 16.3185 -3.53871 3.10931
upperback 1.82161 -4.24454 -0.0463559
thorax -7.41304 -2.20068 -0.843918
lowerneck 3.71492 6.16671 9.78576
upperneck -19.073 7.42738 -9.04131
head -5.58344 3.3917 -4.86453
rclavicle 1.12313e-014 2.06736e-014
rhumerus -48.0055 -13.9544 -56.3111
rradius 95.4851
rwrist -44.1031
rhand -11.5493 -34.6832
rfingers 7.12502
rthumb 14.4913 -64.1572
lclavicle 1.12313e-014 2.06736e-014
lhumerus -8.65355 -44.665 59.4773
lradius 70.2187
lwrist 10.9255
lhand -17.3241 14.3315
lfingers 7.12502
lthumb 8.92259 44.1228
rfemur -22.2571 12.1664 25.4726
rtibia 37.2533
rfoot -19.2587 10.5518
rtoes -4.61168
lfemur -23.8827 0.581291 -18.4897
ltibia 46.9266
lfoot -15.8725 -8.19765
ltoes -19.6118
474
root -2.27083 17.5873 4.6397 897.048 -72.2907 -892.796
lowerback 16.2539 -3.51939 3.10589
upperback 1.82923 -4.21922 -0.0007552
thorax -7.36433 -2.18771 -0.803416
lowerneck 3.37849 6.23824 10.4042
upperneck -19.0974 7.54935 -8.95626
head -5.5023 3.38797 -4.92737
rclavicle -2.29596e-014 2.50469e-014
rhumerus -47.6225 -14.0611 -56.274
rradius 95.3811
rwrist -44.1256
rhand -11.3093 -34.7314
rfingers 7.12502
rthumb 14.7225 -64.1886
lclavicle -2.29596e-014 2.50469e-014
lhumerus -12.2542 -43.9649 63.9776
lradius 67.2275
lwrist 10.7599
lhand -18.9758 14.6958
lfingers 7.12502
lthumb 7.32849 44.5488
rfemur -22.3921 12.4156 25.4517
rtibia 37.3901
rfoot -19.1399 10.5928
rtoes -4.7185
lfemur -24.1085 -0.566829 -18.1582
ltibia 47.7205
lfoot -15.3958 -8.56446
ltoes -19.1371
